<svg id="Layer_1" data-name="Layer 1" xmlns="http://www.w3.org/2000/svg" viewBox="0 0 1130.24 851"><defs><style>.cls-1{fill:#010101;}.cls-2{fill:#c72227;}.cls-3{fill:#020101;}.cls-4{fill:#feea02;}.cls-5{fill:#feea01;}.cls-6{fill:#fde900;}.cls-7{fill:#eada22;}</style></defs><title>7</title><path class="cls-1" d="M694.28,1096.51C635.33,1027.78,577,959.64,518.49,891.64q-81.9-95.21-164.06-190.19Q266.17,598.82,178.19,495.94c-15.07-17.58-30-35.31-45.52-52.46-4.83-5.34-4.68-8.11.43-13q93-89,185.48-178.43a21.5,21.5,0,0,1,16.32-6.54q359.67.26,719.35,0c5.74,0,10,1.29,14.29,5.39q93,89.82,186.31,179.22c5.6,5.35,6.22,8.08.77,14.36Q1165,549,1075.12,654.11,993.6,748.84,912,843.45q-74.31,86.37-148.46,172.88C740.65,1042.92,717.69,1069.4,694.28,1096.51Z" transform="translate(-129.15 -245.51)"/><path class="cls-2" d="M694.49,270.7q174.62,0,349.24-.11c7.35,0,13,1.61,18.5,7q78.93,76.84,158.54,153c6.28,6,6.83,9.11.75,16.14Q1072.63,619,924.45,791.78,814.2,920,704.1,1048.44c-9.29,10.82-9.51,11-18.49.64Q603.11,953.5,520.8,857.73q-81.22-94.41-162.36-188.9L193.86,477.28c-9.56-11.13-19-22.42-28.78-33.31-3.91-4.33-4-6.81.5-11.12Q247.3,354.72,328.47,276c5.18-5,10.55-5.33,16.78-5.32Q519.87,270.75,694.49,270.7Z" transform="translate(-129.15 -245.51)"/><path class="cls-1" d="M1036.9,608.19c-8-14.36-15.09-29.31-26.47-41.62-31.83-34.44-73.18-50.64-117.25-61.33-37.24-9-75.18-12.91-113.49-14.37-45.63-1.73-91.21,1.76-136.82.45C596.42,490,550.25,486.51,507,467.56c-19.49-8.53-36.73-20.35-44.14-41.76-7.89-22.8,3.81-54.47,26.44-73,22-18,47.85-28.13,75.22-34.07,73.41-15.94,146.86-19,219.75,2.87,36.7,11,68.78,29.5,91.45,61.55,11.08,15.67,18.41,33,20.89,52.08.8,6.15,3.33,7.51,8.89,7.5,49.91-.14,99.81-.24,149.71.07,8.17.05,8.34-4.11,8.3-10.12q-.23-44.64,0-89.29c0-3.66-1.13-7.56,1-11,3-.32,4.15,2.08,5.68,3.58q50.52,49.55,101,99.11c4.38,4.27,6.7,7.11,1.69,13q-67,79.14-133.5,158.71A10.05,10.05,0,0,1,1036.9,608.19Z" transform="translate(-129.15 -245.51)"/><path class="cls-1" d="M351.76,604.7c48.32,9.26,95.9,16.9,143.87,21.81,36.87,3.77,73.75,7.67,110.71,10.33,72.44,5.2,145.1,7.37,217.38,14.69,26.85,2.72,53.43,7.42,78.85,17.52,37.66,15,31.08,48,12.62,66.72-20.64,21-47.71,27.71-75.54,31.37C787.29,774,734.7,771.77,682.14,770c-3.61-.13-6.51-.54-8.74-4.18-19.58-32-51-45.35-85.78-50.94-35.43-5.68-70.18-2.68-101.39,17.84-1.62,1.06-3.22,2.16-4.73,3.36-12.64,10.08-12.59,10.05-22.73-1.93q-50.52-59.7-101.09-119.36C355.47,612.16,352.73,609.88,351.76,604.7Z" transform="translate(-129.15 -245.51)"/><path class="cls-1" d="M538.39,817.65C640,845.21,742,856.52,845.05,823.58L846,827c-10.88,12.84-21.69,25.73-32.67,38.49-37.49,43.59-75.18,87-112.41,130.83-5.7,6.72-8.65,4.71-13.18-.57Q635,934.18,582,872.83,559.47,846.6,537,820.31C537.43,819.42,537.91,818.54,538.39,817.65Z" transform="translate(-129.15 -245.51)"/><path class="cls-1" d="M447,305.2C368.29,365.41,316.59,441.86,295,540.31c-10.23-11.76-19.47-22.18-28.48-32.79-15.47-18.23-30.61-36.74-46.27-54.81-6.65-7.66-6.42-13.94.84-20.92q63.42-61,126.6-122.32c2.58-2.5,5.14-4.34,9-4.33C386.81,305.24,416.89,305.2,447,305.2Z" transform="translate(-129.15 -245.51)"/><path class="cls-3" d="M852.34,305.18c30.85,0,61.69.09,92.54-.08,5.27,0,7.36,1.51,7.82,7.07,1.82,22-6.06,39.9-21.68,54.87-2.13,2-4.29,5.43-7.19.95C906,340.45,880.6,321.67,852.34,305.18Z" transform="translate(-129.15 -245.51)"/><path class="cls-4" d="M1041.5,571.3C996.18,508.8,929.34,489,858.31,477.13c-62.6-10.43-125.65-7.49-188.63-6.78-45.32.52-90.36-1.56-134.21-14.42-13.36-3.91-26.13-9.3-37.39-17.76-16.82-12.63-20.27-25.69-12.44-45.51,6.33-16,18.6-26.19,33-34.31,29-16.44,61.06-23,93.65-26.93s65.43-5.74,98.3-2.57c46.24,4.45,90.7,14,127.74,44.66,25.25,20.87,37.84,48.25,39.31,80.56.38,8.47,3.14,9.83,10.77,9.79q92.83-.45,185.68.06c9.07.07,10.77-2.72,10.57-11.06-.57-23.55-.2-47.12-.2-73.44,7.95,7.83,14.36,14.14,20.77,20.47l27.22,26.91c16.75,16.58,16.64,16.5,1.74,34.18C1103.3,497.57,1072.59,534.25,1041.5,571.3Z" transform="translate(-129.15 -245.51)"/><path class="cls-5" d="M403.06,635.37c38.71,5.67,75.27,10.76,112,14.54,58.08,6,116.33,9.4,174.58,13.11s116.68,4.64,174.16,16.19c12.14,2.44,24,5.7,35.05,11.5,10.45,5.51,12.6,12.58,6.68,22.84-5.81,10.05-15,16.38-25.34,21.2-18.13,8.47-37.57,11.7-57.2,13.4-42.46,3.67-85,2.88-127.55,1.28-3.88-.15-7.13-.34-10.1-4-33.33-40.79-78.7-53.59-128.87-53.62-28.17,0-55.18,6-79.41,21.55-2.34,1.5-4.68,4.13-7.86.33C447.7,688,426,662.52,403.06,635.37Z" transform="translate(-129.15 -245.51)"/><path class="cls-6" d="M595.09,852.55c64.55,12.28,129,17.69,196.49,5.18-10.91,12.78-20.26,23.79-29.67,34.75q-30.49,35.53-61.11,71c-2.76,3.18-4.85,9.29-11,2.07C658.65,928.8,627,892.48,595.57,856,595.17,855.51,595.34,854.55,595.09,852.55Z" transform="translate(-129.15 -245.51)"/><path class="cls-4" d="M284.74,495.79c-14.75-17.33-28.66-33.74-42.66-50.07-2.81-3.27,0-4.78,1.78-6.46,37.71-36.64,75.19-73.51,113.39-109.63,8.95-8.46,21.33-1.23,32.48-3C341.16,374.37,306.13,429.94,284.74,495.79Z" transform="translate(-129.15 -245.51)"/><path class="cls-7" d="M917.33,327.36c5.06-1.87,8.77-1.4,13-.75,1.47,3.55-1.48,8.69-2.25,8.74C922.66,335.69,921.63,330.14,917.33,327.36Z" transform="translate(-129.15 -245.51)"/></svg>